# xmcd CD database file
#
# Track frame offsets:
#	150
#	23977
#	42318
#	67906
#	101140
#	121032
#	142517
#	170692
#	209163
#
# Disc length: 3084 seconds
#
# Revision: 0
# Processed by: cddbd v1.5.2PL0 Copyright (c) Steve Scherf et al.
# Submitted via: CDex 1.70beta2
#
DISCID=7a0c0a09
DTITLE=Metismatic - Au fond a gauche
DYEAR=2012
DGENRE=Jazz
TTITLE0=Au fond a gauche
TTITLE1=No time for lunch
TTITLE2=Bizarre bizarre
TTITLE3=M'Balax
TTITLE4=Reve de plomb
TTITLE5=Caipirinha !
TTITLE6=Soubalamaloya
TTITLE7=Da Gue Na Tin
TTITLE8=Feliz
EXTD=YEAR: 2012
EXTT0=
EXTT1=
EXTT2=
EXTT3=
EXTT4=
EXTT5=
EXTT6=
EXTT7=
EXTT8=
PLAYORDER=
